<svg xmlns="http://www.w3.org/2000/svg" width="17.546" height="16.449" viewBox="0 0 17.546 16.449">
  <g id="note" transform="translate(0 -16)">
    <path id="Path_779" data-name="Path 779" d="M15.284,16H2.262A2.264,2.264,0,0,0,0,18.262V30.187a2.264,2.264,0,0,0,2.262,2.262H13.708a2.517,2.517,0,0,0,1.792-.742l1.3-1.3a2.517,2.517,0,0,0,.742-1.792V18.262A2.264,2.264,0,0,0,15.284,16ZM2.262,17.1H15.284a1.166,1.166,0,0,1,1.165,1.165v1.576H1.1V18.262A1.166,1.166,0,0,1,2.262,17.1ZM1.1,30.187V20.935H16.449v7.128H14.736a1.578,1.578,0,0,0-1.576,1.576v1.713H2.262A1.166,1.166,0,0,1,1.1,30.187Zm14.932-.56-1.3,1.3a1.435,1.435,0,0,1-.468.313V29.639a.48.48,0,0,1,.48-.48h1.606A1.436,1.436,0,0,1,16.028,29.627Z" transform="translate(0 0)" fill="#47b181"/>
    <path id="Path_780" data-name="Path 780" d="M121.869,208.548a.548.548,0,0,0-.548-.548h-8.773a.548.548,0,1,0,0,1.1h8.773A.548.548,0,0,0,121.869,208.548Z" transform="translate(-108.162 -185.42)" fill="#47b181"/>
    <path id="Path_781" data-name="Path 781" d="M151.128,288h-6.58a.548.548,0,1,0,0,1.1h6.58a.548.548,0,0,0,0-1.1Z" transform="translate(-139.065 -262.679)" fill="#47b181"/>
  </g>
</svg>
