<?xml version="1.0" encoding="UTF-8"?>
<svg width="35px" height="20px" viewBox="0 0 35 20" version="1.1" xmlns="http://www.w3.org/2000/svg" xmlns:xlink="http://www.w3.org/1999/xlink">
    <!-- Generator: Sketch 51.2 (57519) - http://www.bohemiancoding.com/sketch -->
    <title>offer_icon</title>
    <desc>Created with Sketch.</desc>
    <defs></defs>
    <g id="offer_icon" stroke="none" stroke-width="1" fill="none" fill-rule="evenodd">
        <g id="coupon_blue" fill-rule="nonzero">
            <path d="M34.2715625,0 L10.2089941,0 L8.75,1.48543792 L7.29203125,0 L0.72953125,0 C0.326689453,0 0,0.33248798 0,0.742753776 L0,18.5682177 C0,18.9785532 0.326689453,19.3103448 0.72953125,19.3103448 L7.29203125,19.3103448 L8.75,17.8262299 L10.2089941,19.3103448 L34.2715625,19.3103448 C34.6743359,19.3103448 35,18.9784835 35,18.5682177 L35,0.742753776 C35,0.33248798 34.6742676,0 34.2715625,0 Z M33.542373,17.8262299 L10.8125391,17.8262299 L9.78174805,16.7756375 L8.75,15.7243488 L7.71927734,16.7756375 L6.68848633,17.8262299 L1.45899414,17.8262299 L1.45899414,1.48543792 L6.68848633,1.48543792 L7.71927734,2.53568215 L8.75,3.58599601 L9.78174805,2.53575178 L10.8125391,1.48550755 L33.542373,1.48543792 L33.542373,17.8262299 Z" id="Shape" fill="#0073AA"></path>
            <path d="M18.8465956,3.67816092 C17.3596547,3.67816092 16.1538462,4.9135823 16.1538462,6.43678161 C16.1538462,7.96030419 17.3595916,9.1954023 18.8465956,9.1954023 C20.3333472,9.1954023 21.5384615,7.96030419 21.5384615,6.43678161 C21.5384615,4.9135823 20.3332841,3.67816092 18.8465956,3.67816092 Z M18.8465956,7.81605963 C18.1041664,7.81605963 17.4997476,7.1971205 17.4997476,6.43678161 C17.4997476,5.6761841 18.1041664,5.05750359 18.8465956,5.05750359 C19.5890248,5.05750359 20.1928756,5.6761841 20.1928756,6.43678161 C20.1928756,7.1971205 19.5890248,7.81605963 18.8465956,7.81605963 Z" id="Shape" fill="#DC062B"></path>
            <path d="M24.2310847,10.1149425 C22.744044,10.1149425 21.5384615,11.3496518 21.5384615,12.8726258 C21.5384615,14.3955999 22.7439809,15.6321839 24.2310847,15.6321839 C25.7174944,15.6321839 26.9230769,14.3956645 26.9230769,12.8726258 C26.9230769,11.3495871 25.7174314,10.1149425 24.2310847,10.1149425 Z M24.2310847,14.2523402 C23.4882268,14.2523402 22.8851201,13.6343714 22.8851201,12.8726258 C22.8851201,12.1126257 23.4882268,11.4947216 24.2310847,11.4947216 C24.9733747,11.4947216 25.5764183,12.1126904 25.5764183,12.8726258 C25.5764183,13.6343714 24.9733116,14.2523402 24.2310847,14.2523402 Z" id="Shape" fill="#DC062B"></path>
            <path d="M27.0913462,3.67816092 C26.8903075,3.67816092 26.7073152,3.76157769 26.575249,3.89689357 L16.3675992,14.3564185 C16.2359432,14.4917344 16.1538462,14.6777587 16.1538462,14.8837442 C16.1538462,15.297116 16.4805254,15.6321839 16.8832862,15.6321839 C17.0840515,15.6321839 17.2666336,15.5477866 17.399315,15.4131711 L27.6066914,4.95329593 C27.7393728,4.81833025 27.8205128,4.63160555 27.8205128,4.42526985 C27.8205128,4.01287861 27.4934234,3.67816092 27.0913462,3.67816092 Z" id="Shape" fill="#DC062B"></path>
            <path d="M8.97372784,4.59770115 C8.47950485,4.59770115 8.07692308,5.00924001 8.07692308,5.51724138 C8.07692308,6.02524275 8.479589,6.43678161 8.97372784,6.43678161 C9.47081198,6.43678161 9.87179487,6.02524275 9.87179487,5.51724138 C9.87179487,5.00924001 9.47081198,4.59770115 8.97372784,4.59770115 Z" id="Shape" fill="#0073AA"></path>
            <path d="M8.97372784,7.35632184 C8.47950485,7.35632184 8.07692308,7.7678607 8.07692308,8.27586207 C8.07692308,8.78343241 8.479589,9.1954023 8.97372784,9.1954023 C9.47081198,9.1954023 9.87179487,8.78343241 9.87179487,8.27586207 C9.87179487,7.7678607 9.47081198,7.35632184 8.97372784,7.35632184 Z" id="Shape" fill="#0073AA"></path>
            <path d="M8.97372784,10.1149425 C8.47950485,10.1149425 8.07692308,10.5264338 8.07692308,11.0353449 C8.07692308,11.5416696 8.479589,11.954023 8.97372784,11.954023 C9.47081198,11.954023 9.87179487,11.5416696 9.87179487,11.0353449 C9.87179487,10.5264338 9.47081198,10.1149425 8.97372784,10.1149425 Z" id="Shape" fill="#0073AA"></path>
            <path d="M8.97372784,13.7931034 C8.47950485,13.7931034 8.07692308,14.2043382 8.07692308,14.7125574 C8.07692308,15.2210354 8.479589,15.6321839 8.97372784,15.6321839 C9.47081198,15.6321839 9.87179487,15.2209492 9.87179487,14.7125574 C9.87179487,14.2042519 9.47081198,13.7931034 8.97372784,13.7931034 Z" id="Shape" fill="#0073AA"></path>
        </g>
    </g>
</svg>