<svg xmlns="http://www.w3.org/2000/svg" width="17.79" height="16.595" viewBox="0 0 17.79 16.595">
  <path id="product" d="M1.379,25.746v-8.1a.523.523,0,0,1,.523-.523H15.923a.523.523,0,0,1,.523.523v8.747a1.571,1.571,0,0,1,.992,2.551L15.081,31.8c-1.459,1.708-3.009,1.917-5.313,1.917a17.16,17.16,0,0,1-4.585-.384l-1.678-.4a1.464,1.464,0,0,1-1.19.626H1.489A1.533,1.533,0,0,1,0,31.989V27.311A1.54,1.54,0,0,1,1.379,25.746Zm2.352,1.076.7-.354a4.146,4.146,0,0,1,3.636-.059,5,5,0,0,0,1.37.53h2.42A1.457,1.457,0,0,1,13.31,28.4v.382l.014-.014,1.728-1.875A1.594,1.594,0,0,1,15.4,26.6V21.411H11.117V23.33a.523.523,0,0,1-.523.523h-3.3a.523.523,0,0,1-.523-.523V21.411H2.425v4.335A1.509,1.509,0,0,1,3.731,26.823Zm6.339-5.412H7.815v1.4H10.07ZM2.425,20.365H6.768v-2.2H2.425v2.2Zm5.389-2.2v2.2H10.07v-2.2Zm3.3,0v2.2H15.4v-2.2ZM5.426,32.315a16.649,16.649,0,0,0,4.323.35c2.163,0,3.208-.035,4.525-1.531l2.357-2.858a.529.529,0,0,0-.81-.68l-1.728,1.875a2.376,2.376,0,0,1-1.74.763H7.563a.523.523,0,0,1,0-1.047h4.7V28.4a.409.409,0,0,0-.409-.409H9.435a4.79,4.79,0,0,1-1.811-.628A3.1,3.1,0,0,0,4.9,27.4l-1.1.557v3.968Zm-4.38-.326a.488.488,0,0,0,.443.523h.827a.488.488,0,0,0,.443-.523V27.311a.488.488,0,0,0-.443-.523H1.489a.488.488,0,0,0-.443.523Z" transform="translate(0.001 -17.122)" fill="#47b181"/>
</svg>
